solid remote架
facet normal 0.0 1.0 0.0
  outer loop
    vertex 0.0 131.99999999999997 60.0
    vertex 55.000000000000014 131.99999999999997 0.0
    vertex 0.0 131.99999999999997 0.0
  endloop
endfacet
facet normal 0.0 1.0 0.0
  outer loop
    vertex 55.000000000000014 131.99999999999997 0.0
    vertex 0.0 131.99999999999997 60.0
    vertex 55.000000000000014 131.99999999999997 60.0
  endloop
endfacet
facet normal 0.0 1.0 0.0
  outer loop
    vertex 0.0 99.0 60.0
    vertex 55.000000000000014 99.0 0.0
    vertex 0.0 99.0 0.0
  endloop
endfacet
facet normal 0.0 1.0 0.0
  outer loop
    vertex 55.000000000000014 99.0 0.0
    vertex 0.0 99.0 60.0
    vertex 55.000000000000014 99.0 60.0
  endloop
endfacet
facet normal -1.0 -0.0 -0.0
  outer loop
    vertex 55.000000000000014 129.0 60.0
    vertex 55.000000000000014 99.0 0.0
    vertex 55.000000000000014 99.0 60.0
  endloop
endfacet
facet normal -1.0 -0.0 -0.0
  outer loop
    vertex 55.000000000000014 99.0 0.0
    vertex 55.000000000000014 129.0 60.0
    vertex 55.000000000000014 129.0 0.0
  endloop
endfacet
facet normal -1.0 -0.0 -0.0
  outer loop
    vertex 55.000000000000014 96.0 60.0
    vertex 55.000000000000014 65.99999999999999 0.0
    vertex 55.000000000000014 65.99999999999999 60.0
  endloop
endfacet
facet normal -1.0 -0.0 -0.0
  outer loop
    vertex 55.000000000000014 65.99999999999999 0.0
    vertex 55.000000000000014 96.0 60.0
    vertex 55.000000000000014 96.0 0.0
  endloop
endfacet
facet normal 0.0 1.0 0.0
  outer loop
    vertex 0.0 65.99999999999999 60.0
    vertex 55.000000000000014 65.99999999999999 0.0
    vertex 0.0 65.99999999999999 0.0
  endloop
endfacet
facet normal 0.0 1.0 0.0
  outer loop
    vertex 55.000000000000014 65.99999999999999 0.0
    vertex 0.0 65.99999999999999 60.0
    vertex 55.000000000000014 65.99999999999999 60.0
  endloop
endfacet
facet normal 1.0 0.0 0.0
  outer loop
    vertex 0.0 96.0 0.0
    vertex 0.0 65.99999999999999 60.0
    vertex 0.0 65.99999999999999 0.0
  endloop
endfacet
facet normal 1.0 0.0 0.0
  outer loop
    vertex 0.0 65.99999999999999 60.0
    vertex 0.0 96.0 0.0
    vertex 0.0 96.0 60.0
  endloop
endfacet
facet normal 1.0 0.0 0.0
  outer loop
    vertex 58.00000000000001 65.99999999999999 0.0
    vertex 58.00000000000001 63.0 60.0
    vertex 58.00000000000001 63.0 0.0
  endloop
endfacet
facet normal 1.0 0.0 0.0
  outer loop
    vertex 58.00000000000001 63.0 60.0
    vertex 58.00000000000001 65.99999999999999 0.0
    vertex 58.00000000000001 65.99999999999999 60.0
  endloop
endfacet
facet normal 1.0 0.0 0.0
  outer loop
    vertex 0.0 30.0 0.0
    vertex 0.0 0.0 60.0
    vertex 0.0 0.0 0.0
  endloop
endfacet
facet normal 1.0 0.0 0.0
  outer loop
    vertex 0.0 0.0 60.0
    vertex 0.0 30.0 0.0
    vertex 0.0 30.0 60.0
  endloop
endfacet
facet normal 0.0 1.0 0.0
  outer loop
    vertex 0.0 0.0 60.0
    vertex 55.000000000000014 0.0 0.0
    vertex 0.0 0.0 0.0
  endloop
endfacet
facet normal 0.0 1.0 0.0
  outer loop
    vertex 55.000000000000014 0.0 0.0
    vertex 0.0 0.0 60.0
    vertex 55.000000000000014 0.0 60.0
  endloop
endfacet
facet normal -1.0 -0.0 -0.0
  outer loop
    vertex 55.000000000000014 30.0 60.0
    vertex 55.000000000000014 0.0 0.0
    vertex 55.000000000000014 0.0 60.0
  endloop
endfacet
facet normal -1.0 -0.0 -0.0
  outer loop
    vertex 55.000000000000014 0.0 0.0
    vertex 55.000000000000014 30.0 60.0
    vertex 55.000000000000014 30.0 0.0
  endloop
endfacet
facet normal 0.0 -1.0 0.0
  outer loop
    vertex 55.000000000000014 63.0 60.0
    vertex 0.0 63.0 0.0
    vertex 55.000000000000014 63.0 0.0
  endloop
endfacet
facet normal 0.0 -1.0 0.0
  outer loop
    vertex 0.0 63.0 0.0
    vertex 55.000000000000014 63.0 60.0
    vertex 0.0 63.0 60.0
  endloop
endfacet
facet normal 0.0 0.0 1.0
  outer loop
    vertex 55.000000000000014 63.0 60.0
    vertex 0.0 65.99999999999999 60.0
    vertex 0.0 63.0 60.0
  endloop
endfacet
facet normal 0.0 0.0 1.0
  outer loop
    vertex 0.0 65.99999999999999 60.0
    vertex 55.000000000000014 63.0 60.0
    vertex 55.000000000000014 65.99999999999999 60.0
  endloop
endfacet
facet normal -1.0 -0.0 -0.0
  outer loop
    vertex 55.000000000000014 63.0 60.0
    vertex 55.000000000000014 33.0 0.0
    vertex 55.000000000000014 33.0 60.0
  endloop
endfacet
facet normal -1.0 -0.0 -0.0
  outer loop
    vertex 55.000000000000014 33.0 0.0
    vertex 55.000000000000014 63.0 60.0
    vertex 55.000000000000014 63.0 0.0
  endloop
endfacet
facet normal 0.0 1.0 0.0
  outer loop
    vertex 0.0 33.0 60.0
    vertex 55.000000000000014 33.0 0.0
    vertex 0.0 33.0 0.0
  endloop
endfacet
facet normal 0.0 1.0 0.0
  outer loop
    vertex 55.000000000000014 33.0 0.0
    vertex 0.0 33.0 60.0
    vertex 55.000000000000014 33.0 60.0
  endloop
endfacet
facet normal 1.0 0.0 0.0
  outer loop
    vertex 0.0 63.0 0.0
    vertex 0.0 33.0 60.0
    vertex 0.0 33.0 0.0
  endloop
endfacet
facet normal 1.0 0.0 0.0
  outer loop
    vertex 0.0 33.0 60.0
    vertex 0.0 63.0 0.0
    vertex 0.0 63.0 60.0
  endloop
endfacet
facet normal 1.0 0.0 0.0
  outer loop
    vertex 58.00000000000001 33.0 0.0
    vertex 58.00000000000001 30.0 60.0
    vertex 58.00000000000001 30.0 0.0
  endloop
endfacet
facet normal 1.0 0.0 0.0
  outer loop
    vertex 58.00000000000001 30.0 60.0
    vertex 58.00000000000001 33.0 0.0
    vertex 58.00000000000001 33.0 60.0
  endloop
endfacet
facet normal 0.0 0.0 1.0
  outer loop
    vertex 55.000000000000014 65.99999999999999 0.0
    vertex 0.0 96.0 0.0
    vertex 0.0 65.99999999999999 0.0
  endloop
endfacet
facet normal 0.0 0.0 1.0
  outer loop
    vertex 0.0 96.0 0.0
    vertex 55.000000000000014 65.99999999999999 0.0
    vertex 55.000000000000014 96.0 0.0
  endloop
endfacet
facet normal 1.0 0.0 0.0
  outer loop
    vertex 58.00000000000001 0.0 0.0
    vertex 58.00000000000001 -3.0 60.0
    vertex 58.00000000000001 -3.0 0.0
  endloop
endfacet
facet normal 1.0 0.0 0.0
  outer loop
    vertex 58.00000000000001 -3.0 60.0
    vertex 58.00000000000001 0.0 0.0
    vertex 58.00000000000001 0.0 60.0
  endloop
endfacet
facet normal 2.143805347620305e-17 -1.0 -1.5957797047343666e-15
  outer loop
    vertex 58.00000000000001 -2.9999999999999973 -1.0000000000000002
    vertex 0.0 -3.0 0.0
    vertex 0.0 -3.0 -1.000000000000006
  endloop
endfacet
facet normal 2.143805347620305e-17 -1.0 -1.5957797047343666e-15
  outer loop
    vertex 0.0 -3.0 0.0
    vertex 58.00000000000001 -2.9999999999999973 -1.0000000000000002
    vertex 58.00000000000001 -3.0 0.0
  endloop
endfacet
facet normal 2.143805347620305e-17 -1.0 -1.5957797047343666e-15
  outer loop
    vertex 0.0 -3.0 0.0
    vertex 58.00000000000001 -3.0 0.0
    vertex 55.000000000000014 -3.0 0.0
  endloop
endfacet
facet normal 0.0 0.0 1.0
  outer loop
    vertex 55.000000000000014 0.0 0.0
    vertex 0.0 30.0 0.0
    vertex 0.0 0.0 0.0
  endloop
endfacet
facet normal 0.0 0.0 1.0
  outer loop
    vertex 0.0 30.0 0.0
    vertex 55.000000000000014 0.0 0.0
    vertex 55.000000000000014 30.0 0.0
  endloop
endfacet
facet normal 0.0 0.0 1.0
  outer loop
    vertex 55.000000000000014 30.0 60.0
    vertex 0.0 33.0 60.0
    vertex 0.0 30.0 60.0
  endloop
endfacet
facet normal 0.0 0.0 1.0
  outer loop
    vertex 0.0 33.0 60.0
    vertex 55.000000000000014 30.0 60.0
    vertex 55.000000000000014 33.0 60.0
  endloop
endfacet
facet normal 0.0 0.0 1.0
  outer loop
    vertex 55.000000000000014 33.0 0.0
    vertex 0.0 63.0 0.0
    vertex 0.0 33.0 0.0
  endloop
endfacet
facet normal 0.0 0.0 1.0
  outer loop
    vertex 0.0 63.0 0.0
    vertex 55.000000000000014 33.0 0.0
    vertex 55.000000000000014 63.0 0.0
  endloop
endfacet
facet normal 0.0 -1.0 0.0
  outer loop
    vertex 55.000000000000014 30.0 60.0
    vertex 0.0 30.0 0.0
    vertex 55.000000000000014 30.0 0.0
  endloop
endfacet
facet normal 0.0 -1.0 0.0
  outer loop
    vertex 0.0 30.0 0.0
    vertex 55.000000000000014 30.0 60.0
    vertex 0.0 30.0 60.0
  endloop
endfacet
facet normal -1.174986034394957e-16 -1.0 0.0
  outer loop
    vertex 0.0 -3.0 60.0
    vertex -3.0 -3.0 0.0
    vertex 0.0 -3.0 0.0
  endloop
endfacet
facet normal -1.174986034394957e-16 -1.0 0.0
  outer loop
    vertex -3.0 -3.0 0.0
    vertex 0.0 -3.0 60.0
    vertex -3.0 -3.0 60.0
  endloop
endfacet
facet normal 1.0 0.0 0.0
  outer loop
    vertex 0.0 161.99999999999997 0.0
    vertex 0.0 131.99999999999997 60.0
    vertex 0.0 131.99999999999997 0.0
  endloop
endfacet
facet normal 1.0 0.0 0.0
  outer loop
    vertex 0.0 131.99999999999997 60.0
    vertex 0.0 161.99999999999997 0.0
    vertex 0.0 161.99999999999997 60.0
  endloop
endfacet
facet normal 1.0 0.0 0.0
  outer loop
    vertex 58.00000000000001 131.99999999999997 0.0
    vertex 58.00000000000001 129.0 60.0
    vertex 58.00000000000001 129.0 0.0
  endloop
endfacet
facet normal 1.0 0.0 0.0
  outer loop
    vertex 58.00000000000001 129.0 60.0
    vertex 58.00000000000001 131.99999999999997 0.0
    vertex 58.00000000000001 131.99999999999997 60.0
  endloop
endfacet
facet normal 0.0 -1.0 0.0
  outer loop
    vertex 55.000000000000014 129.0 60.0
    vertex 0.0 129.0 0.0
    vertex 55.000000000000014 129.0 0.0
  endloop
endfacet
facet normal 0.0 -1.0 0.0
  outer loop
    vertex 0.0 129.0 0.0
    vertex 55.000000000000014 129.0 60.0
    vertex 0.0 129.0 60.0
  endloop
endfacet
facet normal 0.0 0.0 1.0
  outer loop
    vertex 55.000000000000014 129.0 60.0
    vertex 0.0 131.99999999999997 60.0
    vertex 0.0 129.0 60.0
  endloop
endfacet
facet normal 0.0 0.0 1.0
  outer loop
    vertex 0.0 131.99999999999997 60.0
    vertex 55.000000000000014 129.0 60.0
    vertex 55.000000000000014 131.99999999999997 60.0
  endloop
endfacet
facet normal 0.0 0.0 1.0
  outer loop
    vertex 55.000000000000014 131.99999999999997 0.0
    vertex 0.0 161.99999999999997 0.0
    vertex 0.0 131.99999999999997 0.0
  endloop
endfacet
facet normal 0.0 0.0 1.0
  outer loop
    vertex 0.0 161.99999999999997 0.0
    vertex 55.000000000000014 131.99999999999997 0.0
    vertex 55.000000000000014 161.99999999999997 0.0
  endloop
endfacet
facet normal -0.0 -1.0 -0.0
  outer loop
    vertex 55.000000000000014 161.99999999999997 60.0
    vertex 0.0 161.99999999999997 0.0
    vertex 55.000000000000014 161.99999999999997 0.0
  endloop
endfacet
facet normal -0.0 -1.0 -0.0
  outer loop
    vertex 0.0 161.99999999999997 0.0
    vertex 55.000000000000014 161.99999999999997 60.0
    vertex 0.0 161.99999999999997 60.0
  endloop
endfacet
facet normal 1.0 0.0 0.0
  outer loop
    vertex 0.0 129.0 0.0
    vertex 0.0 99.0 60.0
    vertex 0.0 99.0 0.0
  endloop
endfacet
facet normal 1.0 0.0 0.0
  outer loop
    vertex 0.0 99.0 60.0
    vertex 0.0 129.0 0.0
    vertex 0.0 129.0 60.0
  endloop
endfacet
facet normal 1.0 0.0 0.0
  outer loop
    vertex 58.00000000000001 99.0 0.0
    vertex 58.00000000000001 96.0 60.0
    vertex 58.00000000000001 96.0 0.0
  endloop
endfacet
facet normal 1.0 0.0 0.0
  outer loop
    vertex 58.00000000000001 96.0 60.0
    vertex 58.00000000000001 99.0 0.0
    vertex 58.00000000000001 99.0 60.0
  endloop
endfacet
facet normal 0.0 -1.0 0.0
  outer loop
    vertex 55.000000000000014 96.0 60.0
    vertex 0.0 96.0 0.0
    vertex 55.000000000000014 96.0 0.0
  endloop
endfacet
facet normal 0.0 -1.0 0.0
  outer loop
    vertex 0.0 96.0 0.0
    vertex 55.000000000000014 96.0 60.0
    vertex 0.0 96.0 60.0
  endloop
endfacet
facet normal 0.0 0.0 1.0
  outer loop
    vertex 55.000000000000014 96.0 60.0
    vertex 0.0 99.0 60.0
    vertex 0.0 96.0 60.0
  endloop
endfacet
facet normal 0.0 0.0 1.0
  outer loop
    vertex 0.0 99.0 60.0
    vertex 55.000000000000014 96.0 60.0
    vertex 55.000000000000014 99.0 60.0
  endloop
endfacet
facet normal 0.0 0.0 1.0
  outer loop
    vertex 55.000000000000014 99.0 0.0
    vertex 0.0 129.0 0.0
    vertex 0.0 99.0 0.0
  endloop
endfacet
facet normal 0.0 0.0 1.0
  outer loop
    vertex 0.0 129.0 0.0
    vertex 55.000000000000014 99.0 0.0
    vertex 55.000000000000014 129.0 0.0
  endloop
endfacet
facet normal -1.0 -0.0 -0.0
  outer loop
    vertex 55.000000000000014 161.99999999999997 60.0
    vertex 55.000000000000014 131.99999999999997 0.0
    vertex 55.000000000000014 131.99999999999997 60.0
  endloop
endfacet
facet normal -1.0 -0.0 -0.0
  outer loop
    vertex 55.000000000000014 131.99999999999997 0.0
    vertex 55.000000000000014 161.99999999999997 60.0
    vertex 55.000000000000014 161.99999999999997 0.0
  endloop
endfacet
facet normal -5.287437154777319e-16 -1.0 -1.2337353361146978e-15
  outer loop
    vertex 0.0 -3.0 0.0
    vertex -3.0 -2.9999999999999973 -1.0000000000000002
    vertex 0.0 -3.0 -1.000000000000006
  endloop
endfacet
facet normal -5.287437154777319e-16 -1.0 -1.2337353361146978e-15
  outer loop
    vertex -3.0 -2.9999999999999973 -1.0000000000000002
    vertex 0.0 -3.0 0.0
    vertex -3.0 -3.0 0.0
  endloop
endfacet
facet normal 8.127173707418559e-17 -5.975537378408698e-18 -1.0
  outer loop
    vertex -0.9999999999999992 162.99999999999997 -3.0000000000000058
    vertex 0.0 -1.0000000000000002 -3.0000000000000058
    vertex -1.0000000000000002 -0.9999999999999992 -3.000000000000002
  endloop
endfacet
facet normal 8.127173707418559e-17 -5.975537378408698e-18 -1.0
  outer loop
    vertex 0.0 -1.0000000000000002 -3.0000000000000058
    vertex -0.9999999999999992 162.99999999999997 -3.0000000000000058
    vertex 56.00000000000001 162.99999999999997 -3.0
  endloop
endfacet
facet normal 8.127173707418559e-17 -5.975537378408698e-18 -1.0
  outer loop
    vertex 0.0 -1.0000000000000002 -3.0000000000000058
    vertex 56.00000000000001 162.99999999999997 -3.0
    vertex 56.00000000000001 -0.9999999999999992 -3.0
  endloop
endfacet
facet normal 6.86844801264386e-17 -0.8910065241883685 -0.45399049973954586
  outer loop
    vertex 57.618033988749914 -2.6180339887498936 -2.1755705045849467
    vertex 0.0 -2.902113032590307 -1.6180339887499005
    vertex 0.0 -2.6180339887498953 -2.175570504584952
  endloop
endfacet
facet normal 6.86844801264386e-17 -0.8910065241883685 -0.45399049973954586
  outer loop
    vertex 0.0 -2.902113032590307 -1.6180339887499005
    vertex 57.618033988749914 -2.6180339887498936 -2.1755705045849467
    vertex 57.90211303259033 -2.902113032590305 -1.6180339887498953
  endloop
endfacet
facet normal 9.671568605370882e-17 0.15643446504023414 -0.9876883405951373
  outer loop
    vertex 56.618033988749914 163.61803398874986 -2.902113032590307
    vertex -0.9999999999999992 162.99999999999997 -3.0000000000000058
    vertex -1.6180339887498942 163.61803398874986 -2.9021130325903126
  endloop
endfacet
facet normal 9.671568605370882e-17 0.15643446504023414 -0.9876883405951373
  outer loop
    vertex -0.9999999999999992 162.99999999999997 -3.0000000000000058
    vertex 56.618033988749914 163.61803398874986 -2.902113032590307
    vertex 56.00000000000001 162.99999999999997 -3.0
  endloop
endfacet
facet normal 4.2304009686741834e-17 0.8910065241883652 -0.4539904997395521
  outer loop
    vertex -2.902113032590307 164.90211303259028 -1.6180339887499005
    vertex 57.618033988749914 164.61803398874986 -2.1755705045849463
    vertex -2.618033988749895 164.61803398874986 -2.175570504584952
  endloop
endfacet
facet normal 4.2304009686741834e-17 0.8910065241883652 -0.4539904997395521
  outer loop
    vertex 57.618033988749914 164.61803398874986 -2.1755705045849463
    vertex -2.902113032590307 164.90211303259028 -1.6180339887499005
    vertex 57.90211303259031 164.90211303259028 -1.618033988749895
  endloop
endfacet
facet normal 8.553265413457272e-17 0.4539904997395345 -0.8910065241883742
  outer loop
    vertex 57.17557050458496 164.17557050458493 -2.618033988749895
    vertex -1.6180339887498942 163.61803398874986 -2.9021130325903126
    vertex -2.1755705045849463 164.17557050458493 -2.6180339887499007
  endloop
endfacet
facet normal 8.553265413457272e-17 0.4539904997395345 -0.8910065241883742
  outer loop
    vertex -1.6180339887498942 163.61803398874986 -2.9021130325903126
    vertex 57.17557050458496 164.17557050458493 -2.618033988749895
    vertex 56.618033988749914 163.61803398874986 -2.902113032590307
  endloop
endfacet
facet normal 6.617906550300048e-17 0.7071067811865641 -0.7071067811865309
  outer loop
    vertex -2.618033988749895 164.61803398874986 -2.175570504584952
    vertex 57.17557050458496 164.17557050458493 -2.618033988749895
    vertex -2.1755705045849463 164.17557050458493 -2.6180339887499007
  endloop
endfacet
facet normal 6.617906550300048e-17 0.7071067811865641 -0.7071067811865309
  outer loop
    vertex 57.17557050458496 164.17557050458493 -2.618033988749895
    vertex -2.618033988749895 164.61803398874986 -2.175570504584952
    vertex 57.618033988749914 164.61803398874986 -2.1755705045849463
  endloop
endfacet
facet normal 1.4463839993781906e-17 0.9876883405951363 -0.15643446504023956
  outer loop
    vertex -3.0 164.99999999999997 -1.000000000000006
    vertex 57.90211303259031 164.90211303259028 -1.618033988749895
    vertex -2.902113032590307 164.90211303259028 -1.6180339887499005
  endloop
endfacet
facet normal 1.4463839993781906e-17 0.9876883405951363 -0.15643446504023956
  outer loop
    vertex 57.90211303259031 164.90211303259028 -1.618033988749895
    vertex -3.0 164.99999999999997 -1.000000000000006
    vertex 58.00000000000001 164.99999999999997 -1.0000000000000002
  endloop
endfacet
facet normal 0.15643446504023104 1.065994290544242e-18 -0.9876883405951378
  outer loop
    vertex 56.618033988749914 163.61803398874986 -2.902113032590307
    vertex 56.00000000000001 -0.9999999999999992 -3.0
    vertex 56.00000000000001 162.99999999999997 -3.0
  endloop
endfacet
facet normal 0.15643446504023104 1.065994290544242e-18 -0.9876883405951378
  outer loop
    vertex 56.00000000000001 -0.9999999999999992 -3.0
    vertex 56.618033988749914 163.61803398874986 -2.902113032590307
    vertex 56.618033988749914 -1.6180339887498942 -2.9021130325903073
  endloop
endfacet
facet normal 0.9876883405951378 3.3331815350313453e-17 -0.15643446504023076
  outer loop
    vertex 57.90211303259033 -2.902113032590305 -1.6180339887498953
    vertex 58.00000000000001 164.99999999999997 -1.0000000000000002
    vertex 58.00000000000001 -2.9999999999999973 -1.0000000000000002
  endloop
endfacet
facet normal 0.9876883405951378 3.3331815350313453e-17 -0.15643446504023076
  outer loop
    vertex 58.00000000000001 164.99999999999997 -1.0000000000000002
    vertex 57.90211303259033 -2.902113032590305 -1.6180339887498953
    vertex 57.90211303259031 164.90211303259028 -1.618033988749895
  endloop
endfacet
facet normal 0.8910065241883688 3.093211923000225e-17 -0.453990499739545
  outer loop
    vertex 57.618033988749914 -2.6180339887498936 -2.1755705045849467
    vertex 57.90211303259031 164.90211303259028 -1.618033988749895
    vertex 57.90211303259033 -2.902113032590305 -1.6180339887498953
  endloop
endfacet
facet normal 0.8910065241883688 3.093211923000225e-17 -0.453990499739545
  outer loop
    vertex 57.90211303259031 164.90211303259028 -1.618033988749895
    vertex 57.618033988749914 -2.6180339887498936 -2.1755705045849467
    vertex 57.618033988749914 164.61803398874986 -2.1755705045849463
  endloop
endfacet
facet normal 0.45399049973954914 9.418344187318232e-19 -0.8910065241883667
  outer loop
    vertex 57.17557050458496 164.17557050458493 -2.618033988749895
    vertex 56.618033988749914 -1.6180339887498942 -2.9021130325903073
    vertex 56.618033988749914 163.61803398874986 -2.902113032590307
  endloop
endfacet
facet normal 0.45399049973954914 9.418344187318232e-19 -0.8910065241883667
  outer loop
    vertex 56.618033988749914 -1.6180339887498942 -2.9021130325903073
    vertex 57.17557050458496 164.17557050458493 -2.618033988749895
    vertex 57.17557050458496 -2.1755705045849454 -2.618033988749895
  endloop
endfacet
facet normal 0.7071067811865459 7.964873418612626e-19 -0.7071067811865491
  outer loop
    vertex 57.618033988749914 164.61803398874986 -2.1755705045849463
    vertex 57.17557050458496 -2.1755705045849454 -2.618033988749895
    vertex 57.17557050458496 164.17557050458493 -2.618033988749895
  endloop
endfacet
facet normal 0.7071067811865459 7.964873418612626e-19 -0.7071067811865491
  outer loop
    vertex 57.17557050458496 -2.1755705045849454 -2.618033988749895
    vertex 57.618033988749914 164.61803398874986 -2.1755705045849463
    vertex 57.618033988749914 -2.6180339887498936 -2.1755705045849467
  endloop
endfacet
facet normal 5.671890074404675e-17 -0.9876883405951378 -0.15643446504023076
  outer loop
    vertex 57.90211303259033 -2.902113032590305 -1.6180339887498953
    vertex 0.0 -3.0 -1.000000000000006
    vertex 0.0 -2.902113032590307 -1.6180339887499005
  endloop
endfacet
facet normal 5.671890074404675e-17 -0.9876883405951378 -0.15643446504023076
  outer loop
    vertex 0.0 -3.0 -1.000000000000006
    vertex 57.90211303259033 -2.902113032590305 -1.6180339887498953
    vertex 58.00000000000001 -2.9999999999999973 -1.0000000000000002
  endloop
endfacet
facet normal 9.40858417285593e-17 -0.45399049973954686 -0.8910065241883679
  outer loop
    vertex 56.618033988749914 -1.6180339887498942 -2.9021130325903073
    vertex 0.0 -2.1755705045849467 -2.6180339887499007
    vertex 0.0 -1.6180339887498953 -2.9021130325903126
  endloop
endfacet
facet normal 9.40858417285593e-17 -0.45399049973954686 -0.8910065241883679
  outer loop
    vertex 0.0 -2.1755705045849467 -2.6180339887499007
    vertex 56.618033988749914 -1.6180339887498942 -2.9021130325903073
    vertex 57.17557050458496 -2.1755705045849454 -2.618033988749895
  endloop
endfacet
facet normal 8.263593375755317e-17 -0.7071067811865475 -0.7071067811865476
  outer loop
    vertex 57.17557050458496 -2.1755705045849454 -2.618033988749895
    vertex 0.0 -2.6180339887498953 -2.175570504584952
    vertex 0.0 -2.1755705045849467 -2.6180339887499007
  endloop
endfacet
facet normal 8.263593375755317e-17 -0.7071067811865475 -0.7071067811865476
  outer loop
    vertex 0.0 -2.6180339887498953 -2.175570504584952
    vertex 57.17557050458496 -2.1755705045849454 -2.618033988749895
    vertex 57.618033988749914 -2.6180339887498936 -2.1755705045849467
  endloop
endfacet
facet normal 9.877396120710383e-17 -0.15643446504023092 -0.9876883405951378
  outer loop
    vertex 56.00000000000001 -0.9999999999999992 -3.0
    vertex 0.0 -1.6180339887498953 -2.9021130325903126
    vertex 0.0 -1.0000000000000002 -3.0000000000000058
  endloop
endfacet
facet normal 9.877396120710383e-17 -0.15643446504023092 -0.9876883405951378
  outer loop
    vertex 0.0 -1.6180339887498953 -2.9021130325903126
    vertex 56.00000000000001 -0.9999999999999992 -3.0
    vertex 56.618033988749914 -1.6180339887498942 -2.9021130325903073
  endloop
endfacet
facet normal -1.1162413252262448e-15 -0.9876883405951378 -0.15643446504023084
  outer loop
    vertex 0.0 -3.0 -1.000000000000006
    vertex -2.902113032590307 -2.902113032590305 -1.6180339887498953
    vertex 0.0 -2.902113032590307 -1.6180339887499005
  endloop
endfacet
facet normal -1.1162413252262448e-15 -0.9876883405951378 -0.15643446504023084
  outer loop
    vertex -2.902113032590307 -2.902113032590305 -1.6180339887498953
    vertex 0.0 -3.0 -1.000000000000006
    vertex -3.0 -2.9999999999999973 -1.0000000000000002
  endloop
endfacet
facet normal -1.4698367481850687e-15 -0.8910065241883682 -0.45399049973954625
  outer loop
    vertex 0.0 -2.902113032590307 -1.6180339887499005
    vertex -2.6180339887498953 -2.6180339887498936 -2.175570504584947
    vertex 0.0 -2.6180339887498953 -2.175570504584952
  endloop
endfacet
facet normal -1.4698367481850687e-15 -0.8910065241883682 -0.45399049973954625
  outer loop
    vertex -2.6180339887498953 -2.6180339887498936 -2.175570504584947
    vertex 0.0 -2.902113032590307 -1.6180339887499005
    vertex -2.902113032590307 -2.902113032590305 -1.6180339887498953
  endloop
endfacet
facet normal -1.8167373974663418e-15 -0.7071067811865476 -0.7071067811865476
  outer loop
    vertex 0.0 -2.6180339887498953 -2.175570504584952
    vertex -2.1755705045849467 -2.1755705045849454 -2.618033988749896
    vertex 0.0 -2.1755705045849467 -2.6180339887499007
  endloop
endfacet
facet normal -1.8167373974663418e-15 -0.7071067811865476 -0.7071067811865476
  outer loop
    vertex -2.1755705045849467 -2.1755705045849454 -2.618033988749896
    vertex 0.0 -2.6180339887498953 -2.175570504584952
    vertex -2.6180339887498953 -2.6180339887498936 -2.175570504584947
  endloop
endfacet
facet normal -2.2167381239149145e-15 -0.45399049973954625 -0.8910065241883682
  outer loop
    vertex -1.618033988749895 -1.6180339887498942 -2.9021130325903086
    vertex 0.0 -2.1755705045849467 -2.6180339887499007
    vertex -2.1755705045849467 -2.1755705045849454 -2.618033988749896
  endloop
endfacet
facet normal -2.2167381239149145e-15 -0.45399049973954625 -0.8910065241883682
  outer loop
    vertex 0.0 -2.1755705045849467 -2.6180339887499007
    vertex -1.618033988749895 -1.6180339887498942 -2.9021130325903086
    vertex 0.0 -1.6180339887498953 -2.9021130325903126
  endloop
endfacet
facet normal -2.7973180226396073e-15 -0.15643446504023015 -0.987688340595138
  outer loop
    vertex -1.0000000000000002 -0.9999999999999992 -3.000000000000002
    vertex 0.0 -1.6180339887498953 -2.9021130325903126
    vertex -1.618033988749895 -1.6180339887498942 -2.9021130325903086
  endloop
endfacet
facet normal -2.7973180226396073e-15 -0.15643446504023015 -0.987688340595138
  outer loop
    vertex 0.0 -1.6180339887498953 -2.9021130325903126
    vertex -1.0000000000000002 -0.9999999999999992 -3.000000000000002
    vertex 0.0 -1.0000000000000002 -3.0000000000000058
  endloop
endfacet
facet normal -0.1564344650402316 -2.1398305066803232e-17 -0.9876883405951378
  outer loop
    vertex -1.6180339887498942 163.61803398874986 -2.9021130325903126
    vertex -1.0000000000000002 -0.9999999999999992 -3.000000000000002
    vertex -1.618033988749895 -1.6180339887498942 -2.9021130325903086
  endloop
endfacet
facet normal -0.1564344650402316 -2.1398305066803232e-17 -0.9876883405951378
  outer loop
    vertex -1.0000000000000002 -0.9999999999999992 -3.000000000000002
    vertex -1.6180339887498942 163.61803398874986 -2.9021130325903126
    vertex -0.9999999999999992 162.99999999999997 -3.0000000000000058
  endloop
endfacet
facet normal -0.9876883405951378 -5.087269443122541e-18 -0.15643446504023129
  outer loop
    vertex -3.0 164.99999999999997 -1.000000000000006
    vertex -2.902113032590307 -2.902113032590305 -1.6180339887498953
    vertex -3.0 -2.9999999999999973 -1.0000000000000002
  endloop
endfacet
facet normal -0.9876883405951378 -5.087269443122541e-18 -0.15643446504023129
  outer loop
    vertex -2.902113032590307 -2.902113032590305 -1.6180339887498953
    vertex -3.0 164.99999999999997 -1.000000000000006
    vertex -2.902113032590307 164.90211303259028 -1.6180339887499005
  endloop
endfacet
facet normal -0.8910065241883682 -1.3052164594621838e-17 -0.4539904997395464
  outer loop
    vertex -2.902113032590307 164.90211303259028 -1.6180339887499005
    vertex -2.6180339887498953 -2.6180339887498936 -2.175570504584947
    vertex -2.902113032590307 -2.902113032590305 -1.6180339887498953
  endloop
endfacet
facet normal -0.8910065241883682 -1.3052164594621838e-17 -0.4539904997395464
  outer loop
    vertex -2.6180339887498953 -2.6180339887498936 -2.175570504584947
    vertex -2.902113032590307 164.90211303259028 -1.6180339887499005
    vertex -2.618033988749895 164.61803398874986 -2.175570504584952
  endloop
endfacet
facet normal -0.7071067811865477 -1.871745253373964e-17 -0.7071067811865474
  outer loop
    vertex -2.618033988749895 164.61803398874986 -2.175570504584952
    vertex -2.1755705045849467 -2.1755705045849454 -2.618033988749896
    vertex -2.6180339887498953 -2.6180339887498936 -2.175570504584947
  endloop
endfacet
facet normal -0.7071067811865477 -1.871745253373964e-17 -0.7071067811865474
  outer loop
    vertex -2.1755705045849467 -2.1755705045849454 -2.618033988749896
    vertex -2.618033988749895 164.61803398874986 -2.175570504584952
    vertex -2.1755705045849463 164.17557050458493 -2.6180339887499007
  endloop
endfacet
facet normal -0.45399049973954686 -2.1304944954331572e-17 -0.8910065241883679
  outer loop
    vertex -2.1755705045849463 164.17557050458493 -2.6180339887499007
    vertex -1.618033988749895 -1.6180339887498942 -2.9021130325903086
    vertex -2.1755705045849467 -2.1755705045849454 -2.618033988749896
  endloop
endfacet
facet normal -0.45399049973954686 -2.1304944954331572e-17 -0.8910065241883679
  outer loop
    vertex -1.618033988749895 -1.6180339887498942 -2.9021130325903086
    vertex -2.1755705045849463 164.17557050458493 -2.6180339887499007
    vertex -1.6180339887498942 163.61803398874986 -2.9021130325903126
  endloop
endfacet
facet normal -1.0 0.0 0.0
  outer loop
    vertex -3.0 165.0 60.0
    vertex -3.0 161.99999999999997 0.0
    vertex -3.0 161.99999999999997 60.0
  endloop
endfacet
facet normal -1.0 0.0 0.0
  outer loop
    vertex -3.0 161.99999999999997 0.0
    vertex -3.0 165.0 60.0
    vertex -3.0 164.99999999999997 -1.000000000000006
  endloop
endfacet
facet normal -1.0 0.0 0.0
  outer loop
    vertex -3.0 0.0 0.0
    vertex -3.0 -2.9999999999999973 -1.0000000000000002
    vertex -3.0 -3.0 0.0
  endloop
endfacet
facet normal -1.0 0.0 0.0
  outer loop
    vertex -3.0 -2.9999999999999973 -1.0000000000000002
    vertex -3.0 0.0 0.0
    vertex -3.0 164.99999999999997 -1.000000000000006
  endloop
endfacet
facet normal -1.0 0.0 0.0
  outer loop
    vertex -3.0 164.99999999999997 -1.000000000000006
    vertex -3.0 0.0 0.0
    vertex -3.0 30.0 0.0
  endloop
endfacet
facet normal -1.0 0.0 0.0
  outer loop
    vertex -3.0 164.99999999999997 -1.000000000000006
    vertex -3.0 30.0 0.0
    vertex -3.0 33.0 0.0
  endloop
endfacet
facet normal -1.0 0.0 0.0
  outer loop
    vertex -3.0 164.99999999999997 -1.000000000000006
    vertex -3.0 33.0 0.0
    vertex -3.0 63.0 0.0
  endloop
endfacet
facet normal -1.0 0.0 0.0
  outer loop
    vertex -3.0 164.99999999999997 -1.000000000000006
    vertex -3.0 63.0 0.0
    vertex -3.0 65.99999999999999 0.0
  endloop
endfacet
facet normal -1.0 0.0 0.0
  outer loop
    vertex -3.0 164.99999999999997 -1.000000000000006
    vertex -3.0 65.99999999999999 0.0
    vertex -3.0 96.0 0.0
  endloop
endfacet
facet normal -1.0 0.0 0.0
  outer loop
    vertex -3.0 164.99999999999997 -1.000000000000006
    vertex -3.0 96.0 0.0
    vertex -3.0 99.0 0.0
  endloop
endfacet
facet normal -1.0 0.0 0.0
  outer loop
    vertex -3.0 164.99999999999997 -1.000000000000006
    vertex -3.0 99.0 0.0
    vertex -3.0 129.0 0.0
  endloop
endfacet
facet normal -1.0 0.0 0.0
  outer loop
    vertex -3.0 164.99999999999997 -1.000000000000006
    vertex -3.0 129.0 0.0
    vertex -3.0 131.99999999999997 0.0
  endloop
endfacet
facet normal -1.0 0.0 0.0
  outer loop
    vertex -3.0 164.99999999999997 -1.000000000000006
    vertex -3.0 131.99999999999997 0.0
    vertex -3.0 161.99999999999997 0.0
  endloop
endfacet
facet normal 0.0 0.0 1.0
  outer loop
    vertex 55.000000000000014 -3.0 60.0
    vertex 0.0 0.0 60.0
    vertex 0.0 -3.0 60.0
  endloop
endfacet
facet normal 0.0 0.0 1.0
  outer loop
    vertex 0.0 0.0 60.0
    vertex 55.000000000000014 -3.0 60.0
    vertex 55.000000000000014 0.0 60.0
  endloop
endfacet
facet normal 0.0 0.0 1.0
  outer loop
    vertex 55.000000000000014 0.0 60.0
    vertex 55.000000000000014 -3.0 60.0
    vertex 58.00000000000001 -3.0 60.0
  endloop
endfacet
facet normal 0.0 0.0 1.0
  outer loop
    vertex 55.000000000000014 0.0 60.0
    vertex 58.00000000000001 -3.0 60.0
    vertex 55.000000000000014 30.0 60.0
  endloop
endfacet
facet normal 0.0 0.0 1.0
  outer loop
    vertex 55.000000000000014 30.0 60.0
    vertex 58.00000000000001 -3.0 60.0
    vertex 55.000000000000014 33.0 60.0
  endloop
endfacet
facet normal 0.0 0.0 1.0
  outer loop
    vertex 55.000000000000014 33.0 60.0
    vertex 58.00000000000001 -3.0 60.0
    vertex 55.000000000000014 63.0 60.0
  endloop
endfacet
facet normal 0.0 0.0 1.0
  outer loop
    vertex 55.000000000000014 63.0 60.0
    vertex 58.00000000000001 -3.0 60.0
    vertex 55.000000000000014 65.99999999999999 60.0
  endloop
endfacet
facet normal 0.0 0.0 1.0
  outer loop
    vertex 55.000000000000014 65.99999999999999 60.0
    vertex 58.00000000000001 -3.0 60.0
    vertex 55.000000000000014 96.0 60.0
  endloop
endfacet
facet normal 0.0 0.0 1.0
  outer loop
    vertex 55.000000000000014 96.0 60.0
    vertex 58.00000000000001 -3.0 60.0
    vertex 55.000000000000014 99.0 60.0
  endloop
endfacet
facet normal 0.0 0.0 1.0
  outer loop
    vertex 55.000000000000014 99.0 60.0
    vertex 58.00000000000001 -3.0 60.0
    vertex 55.000000000000014 129.0 60.0
  endloop
endfacet
facet normal 0.0 0.0 1.0
  outer loop
    vertex 55.000000000000014 129.0 60.0
    vertex 58.00000000000001 -3.0 60.0
    vertex 55.000000000000014 131.99999999999997 60.0
  endloop
endfacet
facet normal 0.0 0.0 1.0
  outer loop
    vertex 55.000000000000014 131.99999999999997 60.0
    vertex 58.00000000000001 -3.0 60.0
    vertex 55.000000000000014 161.99999999999997 60.0
  endloop
endfacet
facet normal 0.0 0.0 1.0
  outer loop
    vertex 0.0 -3.0 60.0
    vertex -3.0 0.0 60.0
    vertex -3.0 -3.0 60.0
  endloop
endfacet
facet normal 0.0 0.0 1.0
  outer loop
    vertex -3.0 0.0 60.0
    vertex 0.0 -3.0 60.0
    vertex -3.0 30.0 60.0
  endloop
endfacet
facet normal 0.0 0.0 1.0
  outer loop
    vertex -3.0 30.0 60.0
    vertex 0.0 -3.0 60.0
    vertex -3.0 33.0 60.0
  endloop
endfacet
facet normal 0.0 0.0 1.0
  outer loop
    vertex -3.0 33.0 60.0
    vertex 0.0 -3.0 60.0
    vertex -3.0 63.0 60.0
  endloop
endfacet
facet normal 0.0 0.0 1.0
  outer loop
    vertex -3.0 63.0 60.0
    vertex 0.0 -3.0 60.0
    vertex -3.0 65.99999999999999 60.0
  endloop
endfacet
facet normal 0.0 0.0 1.0
  outer loop
    vertex -3.0 65.99999999999999 60.0
    vertex 0.0 -3.0 60.0
    vertex -3.0 96.0 60.0
  endloop
endfacet
facet normal 0.0 0.0 1.0
  outer loop
    vertex -3.0 96.0 60.0
    vertex 0.0 -3.0 60.0
    vertex -3.0 99.0 60.0
  endloop
endfacet
facet normal 0.0 0.0 1.0
  outer loop
    vertex -3.0 99.0 60.0
    vertex 0.0 -3.0 60.0
    vertex -3.0 129.0 60.0
  endloop
endfacet
facet normal 0.0 0.0 1.0
  outer loop
    vertex -3.0 129.0 60.0
    vertex 0.0 -3.0 60.0
    vertex -3.0 131.99999999999997 60.0
  endloop
endfacet
facet normal 0.0 0.0 1.0
  outer loop
    vertex -3.0 131.99999999999997 60.0
    vertex 0.0 -3.0 60.0
    vertex -3.0 161.99999999999997 60.0
  endloop
endfacet
facet normal 0.0 0.0 1.0
  outer loop
    vertex -3.0 161.99999999999997 60.0
    vertex 0.0 -3.0 60.0
    vertex -3.0 165.0 60.0
  endloop
endfacet
facet normal 0.0 0.0 1.0
  outer loop
    vertex -3.0 165.0 60.0
    vertex 0.0 -3.0 60.0
    vertex 0.0 161.99999999999997 60.0
  endloop
endfacet
facet normal 0.0 0.0 1.0
  outer loop
    vertex -3.0 165.0 60.0
    vertex 0.0 161.99999999999997 60.0
    vertex 58.00000000000001 164.99999999999997 60.0
  endloop
endfacet
facet normal 0.0 0.0 1.0
  outer loop
    vertex 0.0 161.99999999999997 60.0
    vertex 0.0 -3.0 60.0
    vertex 0.0 0.0 60.0
  endloop
endfacet
facet normal 0.0 0.0 1.0
  outer loop
    vertex 0.0 161.99999999999997 60.0
    vertex 0.0 0.0 60.0
    vertex 0.0 30.0 60.0
  endloop
endfacet
facet normal 0.0 0.0 1.0
  outer loop
    vertex 0.0 161.99999999999997 60.0
    vertex 0.0 30.0 60.0
    vertex 0.0 33.0 60.0
  endloop
endfacet
facet normal 0.0 0.0 1.0
  outer loop
    vertex 0.0 161.99999999999997 60.0
    vertex 0.0 33.0 60.0
    vertex 0.0 63.0 60.0
  endloop
endfacet
facet normal 0.0 0.0 1.0
  outer loop
    vertex 0.0 161.99999999999997 60.0
    vertex 0.0 63.0 60.0
    vertex 0.0 65.99999999999999 60.0
  endloop
endfacet
facet normal 0.0 0.0 1.0
  outer loop
    vertex 0.0 161.99999999999997 60.0
    vertex 0.0 65.99999999999999 60.0
    vertex 0.0 96.0 60.0
  endloop
endfacet
facet normal 0.0 0.0 1.0
  outer loop
    vertex 0.0 161.99999999999997 60.0
    vertex 0.0 96.0 60.0
    vertex 0.0 99.0 60.0
  endloop
endfacet
facet normal 0.0 0.0 1.0
  outer loop
    vertex 0.0 161.99999999999997 60.0
    vertex 0.0 99.0 60.0
    vertex 0.0 129.0 60.0
  endloop
endfacet
facet normal 0.0 0.0 1.0
  outer loop
    vertex 0.0 161.99999999999997 60.0
    vertex 0.0 129.0 60.0
    vertex 0.0 131.99999999999997 60.0
  endloop
endfacet
facet normal 0.0 0.0 1.0
  outer loop
    vertex 58.00000000000001 164.99999999999997 60.0
    vertex 0.0 161.99999999999997 60.0
    vertex 55.000000000000014 161.99999999999997 60.0
  endloop
endfacet
facet normal 0.0 0.0 1.0
  outer loop
    vertex 58.00000000000001 164.99999999999997 60.0
    vertex 55.000000000000014 161.99999999999997 60.0
    vertex 58.00000000000001 -3.0 60.0
  endloop
endfacet
facet normal 0.0 0.0 1.0
  outer loop
    vertex 58.00000000000001 164.99999999999997 60.0
    vertex 58.00000000000001 -3.0 60.0
    vertex 58.00000000000001 0.0 60.0
  endloop
endfacet
facet normal 0.0 0.0 1.0
  outer loop
    vertex 58.00000000000001 164.99999999999997 60.0
    vertex 58.00000000000001 0.0 60.0
    vertex 58.00000000000001 30.0 60.0
  endloop
endfacet
facet normal 0.0 0.0 1.0
  outer loop
    vertex 58.00000000000001 164.99999999999997 60.0
    vertex 58.00000000000001 30.0 60.0
    vertex 58.00000000000001 33.0 60.0
  endloop
endfacet
facet normal 0.0 0.0 1.0
  outer loop
    vertex 58.00000000000001 164.99999999999997 60.0
    vertex 58.00000000000001 33.0 60.0
    vertex 58.00000000000001 63.0 60.0
  endloop
endfacet
facet normal 0.0 0.0 1.0
  outer loop
    vertex 58.00000000000001 164.99999999999997 60.0
    vertex 58.00000000000001 63.0 60.0
    vertex 58.00000000000001 65.99999999999999 60.0
  endloop
endfacet
facet normal 0.0 0.0 1.0
  outer loop
    vertex 58.00000000000001 164.99999999999997 60.0
    vertex 58.00000000000001 65.99999999999999 60.0
    vertex 58.00000000000001 96.0 60.0
  endloop
endfacet
facet normal 0.0 0.0 1.0
  outer loop
    vertex 58.00000000000001 164.99999999999997 60.0
    vertex 58.00000000000001 96.0 60.0
    vertex 58.00000000000001 99.0 60.0
  endloop
endfacet
facet normal 0.0 0.0 1.0
  outer loop
    vertex 58.00000000000001 164.99999999999997 60.0
    vertex 58.00000000000001 99.0 60.0
    vertex 58.00000000000001 129.0 60.0
  endloop
endfacet
facet normal 0.0 0.0 1.0
  outer loop
    vertex 58.00000000000001 164.99999999999997 60.0
    vertex 58.00000000000001 129.0 60.0
    vertex 58.00000000000001 131.99999999999997 60.0
  endloop
endfacet
facet normal 1.0 0.0 0.0
  outer loop
    vertex 58.00000000000001 -2.9999999999999973 -1.0000000000000002
    vertex 58.00000000000001 0.0 0.0
    vertex 58.00000000000001 -3.0 0.0
  endloop
endfacet
facet normal 1.0 0.0 0.0
  outer loop
    vertex 58.00000000000001 0.0 0.0
    vertex 58.00000000000001 -2.9999999999999973 -1.0000000000000002
    vertex 58.00000000000001 164.99999999999997 -1.0000000000000002
  endloop
endfacet
facet normal 1.0 0.0 0.0
  outer loop
    vertex 58.00000000000001 0.0 0.0
    vertex 58.00000000000001 164.99999999999997 -1.0000000000000002
    vertex 58.00000000000001 30.0 0.0
  endloop
endfacet
facet normal 1.0 0.0 0.0
  outer loop
    vertex 58.00000000000001 30.0 0.0
    vertex 58.00000000000001 164.99999999999997 -1.0000000000000002
    vertex 58.00000000000001 33.0 0.0
  endloop
endfacet
facet normal 1.0 0.0 0.0
  outer loop
    vertex 58.00000000000001 33.0 0.0
    vertex 58.00000000000001 164.99999999999997 -1.0000000000000002
    vertex 58.00000000000001 63.0 0.0
  endloop
endfacet
facet normal 1.0 0.0 0.0
  outer loop
    vertex 58.00000000000001 63.0 0.0
    vertex 58.00000000000001 164.99999999999997 -1.0000000000000002
    vertex 58.00000000000001 65.99999999999999 0.0
  endloop
endfacet
facet normal 1.0 0.0 0.0
  outer loop
    vertex 58.00000000000001 65.99999999999999 0.0
    vertex 58.00000000000001 164.99999999999997 -1.0000000000000002
    vertex 58.00000000000001 96.0 0.0
  endloop
endfacet
facet normal 1.0 0.0 0.0
  outer loop
    vertex 58.00000000000001 96.0 0.0
    vertex 58.00000000000001 164.99999999999997 -1.0000000000000002
    vertex 58.00000000000001 99.0 0.0
  endloop
endfacet
facet normal 1.0 0.0 0.0
  outer loop
    vertex 58.00000000000001 99.0 0.0
    vertex 58.00000000000001 164.99999999999997 -1.0000000000000002
    vertex 58.00000000000001 129.0 0.0
  endloop
endfacet
facet normal 1.0 0.0 0.0
  outer loop
    vertex 58.00000000000001 129.0 0.0
    vertex 58.00000000000001 164.99999999999997 -1.0000000000000002
    vertex 58.00000000000001 131.99999999999997 0.0
  endloop
endfacet
facet normal 1.0 0.0 0.0
  outer loop
    vertex 58.00000000000001 131.99999999999997 0.0
    vertex 58.00000000000001 164.99999999999997 -1.0000000000000002
    vertex 58.00000000000001 131.99999999999997 60.0
  endloop
endfacet
facet normal 1.0 0.0 0.0
  outer loop
    vertex 58.00000000000001 131.99999999999997 60.0
    vertex 58.00000000000001 164.99999999999997 -1.0000000000000002
    vertex 58.00000000000001 164.99999999999997 60.0
  endloop
endfacet
facet normal 1.0 0.0 0.0
  outer loop
    vertex 58.00000000000001 129.0 0.0
    vertex 58.00000000000001 99.0 60.0
    vertex 58.00000000000001 99.0 0.0
  endloop
endfacet
facet normal 1.0 0.0 0.0
  outer loop
    vertex 58.00000000000001 99.0 60.0
    vertex 58.00000000000001 129.0 0.0
    vertex 58.00000000000001 129.0 60.0
  endloop
endfacet
facet normal 1.9398698103797208e-16 1.0 -1.5406495841277995e-18
  outer loop
    vertex -3.0 165.0 60.0
    vertex 58.00000000000001 164.99999999999997 -1.0000000000000002
    vertex -3.0 164.99999999999997 -1.000000000000006
  endloop
endfacet
facet normal 1.9398698103797208e-16 1.0 -1.5406495841277995e-18
  outer loop
    vertex 58.00000000000001 164.99999999999997 -1.0000000000000002
    vertex -3.0 165.0 60.0
    vertex 58.00000000000001 164.99999999999997 60.0
  endloop
endfacet
facet normal -1.0 0.0 0.0
  outer loop
    vertex -3.0 161.99999999999997 60.0
    vertex -3.0 131.99999999999997 0.0
    vertex -3.0 131.99999999999997 60.0
  endloop
endfacet
facet normal -1.0 0.0 0.0
  outer loop
    vertex -3.0 131.99999999999997 0.0
    vertex -3.0 161.99999999999997 60.0
    vertex -3.0 161.99999999999997 0.0
  endloop
endfacet
facet normal -1.0 0.0 0.0
  outer loop
    vertex -3.0 131.99999999999997 60.0
    vertex -3.0 129.0 0.0
    vertex -3.0 129.0 60.0
  endloop
endfacet
facet normal -1.0 0.0 0.0
  outer loop
    vertex -3.0 129.0 0.0
    vertex -3.0 131.99999999999997 60.0
    vertex -3.0 131.99999999999997 0.0
  endloop
endfacet
facet normal -1.0 0.0 0.0
  outer loop
    vertex -3.0 129.0 60.0
    vertex -3.0 99.0 0.0
    vertex -3.0 99.0 60.0
  endloop
endfacet
facet normal -1.0 0.0 0.0
  outer loop
    vertex -3.0 99.0 0.0
    vertex -3.0 129.0 60.0
    vertex -3.0 129.0 0.0
  endloop
endfacet
facet normal -1.0 0.0 0.0
  outer loop
    vertex -3.0 99.0 60.0
    vertex -3.0 96.0 0.0
    vertex -3.0 96.0 60.0
  endloop
endfacet
facet normal -1.0 0.0 0.0
  outer loop
    vertex -3.0 96.0 0.0
    vertex -3.0 99.0 60.0
    vertex -3.0 99.0 0.0
  endloop
endfacet
facet normal -1.0 0.0 0.0
  outer loop
    vertex -3.0 96.0 60.0
    vertex -3.0 65.99999999999999 0.0
    vertex -3.0 65.99999999999999 60.0
  endloop
endfacet
facet normal -1.0 0.0 0.0
  outer loop
    vertex -3.0 65.99999999999999 0.0
    vertex -3.0 96.0 60.0
    vertex -3.0 96.0 0.0
  endloop
endfacet
facet normal -1.0 0.0 0.0
  outer loop
    vertex -3.0 65.99999999999999 60.0
    vertex -3.0 63.0 0.0
    vertex -3.0 63.0 60.0
  endloop
endfacet
facet normal -1.0 0.0 0.0
  outer loop
    vertex -3.0 63.0 0.0
    vertex -3.0 65.99999999999999 60.0
    vertex -3.0 65.99999999999999 0.0
  endloop
endfacet
facet normal -1.0 0.0 0.0
  outer loop
    vertex -3.0 63.0 60.0
    vertex -3.0 33.0 0.0
    vertex -3.0 33.0 60.0
  endloop
endfacet
facet normal -1.0 0.0 0.0
  outer loop
    vertex -3.0 33.0 0.0
    vertex -3.0 63.0 60.0
    vertex -3.0 63.0 0.0
  endloop
endfacet
facet normal -1.0 0.0 0.0
  outer loop
    vertex -3.0 33.0 60.0
    vertex -3.0 30.0 0.0
    vertex -3.0 30.0 60.0
  endloop
endfacet
facet normal -1.0 0.0 0.0
  outer loop
    vertex -3.0 30.0 0.0
    vertex -3.0 33.0 60.0
    vertex -3.0 33.0 0.0
  endloop
endfacet
facet normal -1.0 0.0 0.0
  outer loop
    vertex -3.0 30.0 60.0
    vertex -3.0 0.0 0.0
    vertex -3.0 0.0 60.0
  endloop
endfacet
facet normal -1.0 0.0 0.0
  outer loop
    vertex -3.0 0.0 0.0
    vertex -3.0 30.0 60.0
    vertex -3.0 30.0 0.0
  endloop
endfacet
facet normal -1.0 -0.0 -0.0
  outer loop
    vertex -3.0 0.0 60.0
    vertex -3.0 -3.0 0.0
    vertex -3.0 -3.0 60.0
  endloop
endfacet
facet normal -1.0 -0.0 -0.0
  outer loop
    vertex -3.0 -3.0 0.0
    vertex -3.0 0.0 60.0
    vertex -3.0 0.0 0.0
  endloop
endfacet
facet normal 0.0 -1.0 0.0
  outer loop
    vertex 55.000000000000014 -3.0 60.0
    vertex 0.0 -3.0 0.0
    vertex 55.000000000000014 -3.0 0.0
  endloop
endfacet
facet normal 0.0 -1.0 0.0
  outer loop
    vertex 0.0 -3.0 0.0
    vertex 55.000000000000014 -3.0 60.0
    vertex 0.0 -3.0 60.0
  endloop
endfacet
facet normal 0.0 -1.0 0.0
  outer loop
    vertex 58.00000000000001 -3.0 60.0
    vertex 55.000000000000014 -3.0 0.0
    vertex 58.00000000000001 -3.0 0.0
  endloop
endfacet
facet normal 0.0 -1.0 0.0
  outer loop
    vertex 55.000000000000014 -3.0 0.0
    vertex 58.00000000000001 -3.0 60.0
    vertex 55.000000000000014 -3.0 60.0
  endloop
endfacet
facet normal 1.0 0.0 0.0
  outer loop
    vertex 58.00000000000001 30.0 0.0
    vertex 58.00000000000001 0.0 60.0
    vertex 58.00000000000001 0.0 0.0
  endloop
endfacet
facet normal 1.0 0.0 0.0
  outer loop
    vertex 58.00000000000001 0.0 60.0
    vertex 58.00000000000001 30.0 0.0
    vertex 58.00000000000001 30.0 60.0
  endloop
endfacet
facet normal 1.0 0.0 0.0
  outer loop
    vertex 58.00000000000001 63.0 0.0
    vertex 58.00000000000001 33.0 60.0
    vertex 58.00000000000001 33.0 0.0
  endloop
endfacet
facet normal 1.0 0.0 0.0
  outer loop
    vertex 58.00000000000001 33.0 60.0
    vertex 58.00000000000001 63.0 0.0
    vertex 58.00000000000001 63.0 60.0
  endloop
endfacet
facet normal 1.0 0.0 0.0
  outer loop
    vertex 58.00000000000001 96.0 0.0
    vertex 58.00000000000001 65.99999999999999 60.0
    vertex 58.00000000000001 65.99999999999999 0.0
  endloop
endfacet
facet normal 1.0 0.0 0.0
  outer loop
    vertex 58.00000000000001 65.99999999999999 60.0
    vertex 58.00000000000001 96.0 0.0
    vertex 58.00000000000001 96.0 60.0
  endloop
endfacet
endsolid remote架
